<mxfile host="app.diagrams.net" modified="2023-11-16T22:55:36.917Z" agent="Mozilla/5.0 (Windows NT 10.0; Win64; x64) AppleWebKit/537.36 (KHTML, like Gecko) Chrome/119.0.0.0 Safari/537.36" etag="cvPguq5ORBJkHkZDlUsF" version="22.1.2" type="device">
  <diagram name="Page-1" id="e7e014a7-5840-1c2e-5031-d8a46d1fe8dd">
    <mxGraphModel dx="2403" dy="1246" grid="1" gridSize="10" guides="1" tooltips="1" connect="1" arrows="1" fold="1" page="1" pageScale="1" pageWidth="1169" pageHeight="826" background="none" math="0" shadow="0">
      <root>
        <mxCell id="0" />
        <mxCell id="1" parent="0" />
        <mxCell id="0yeaQjvEmNwOVh4x9hjz-1" style="edgeStyle=orthogonalEdgeStyle;rounded=0;orthogonalLoop=1;jettySize=auto;html=1;" parent="1" source="Pa0vinby4Z_l4pB0LRb9-44" target="7IKxG8O1REAikYYfeix0-44" edge="1">
          <mxGeometry relative="1" as="geometry" />
        </mxCell>
        <mxCell id="Pa0vinby4Z_l4pB0LRb9-44" value="Receive request &lt;br&gt;input" style="rounded=1;whiteSpace=wrap;html=1;" parent="1" vertex="1">
          <mxGeometry x="111" y="365" width="120" height="60" as="geometry" />
        </mxCell>
        <mxCell id="Pa0vinby4Z_l4pB0LRb9-46" style="edgeStyle=orthogonalEdgeStyle;rounded=0;orthogonalLoop=1;jettySize=auto;html=1;exitX=1;exitY=0.5;exitDx=0;exitDy=0;entryX=0;entryY=0.5;entryDx=0;entryDy=0;" parent="1" source="Pa0vinby4Z_l4pB0LRb9-45" target="Pa0vinby4Z_l4pB0LRb9-44" edge="1">
          <mxGeometry relative="1" as="geometry" />
        </mxCell>
        <mxCell id="Pa0vinby4Z_l4pB0LRb9-45" value="" style="ellipse;shape=startState;fillColor=#000000;strokeColor=#ff0000;" parent="1" vertex="1">
          <mxGeometry x="40" y="380" width="30" height="30" as="geometry" />
        </mxCell>
        <mxCell id="7IKxG8O1REAikYYfeix0-53" style="edgeStyle=orthogonalEdgeStyle;rounded=0;orthogonalLoop=1;jettySize=auto;html=1;entryX=0;entryY=0.5;entryDx=0;entryDy=0;" parent="1" source="7IKxG8O1REAikYYfeix0-44" target="7IKxG8O1REAikYYfeix0-52" edge="1">
          <mxGeometry relative="1" as="geometry" />
        </mxCell>
        <mxCell id="7IKxG8O1REAikYYfeix0-44" value="Authenticate" style="whiteSpace=wrap;html=1;rounded=1;" parent="1" vertex="1">
          <mxGeometry x="310" y="365" width="120" height="60" as="geometry" />
        </mxCell>
        <mxCell id="7IKxG8O1REAikYYfeix0-56" value="" style="edgeStyle=orthogonalEdgeStyle;rounded=0;orthogonalLoop=1;jettySize=auto;html=1;" parent="1" source="7IKxG8O1REAikYYfeix0-52" target="7IKxG8O1REAikYYfeix0-55" edge="1">
          <mxGeometry relative="1" as="geometry" />
        </mxCell>
        <mxCell id="7IKxG8O1REAikYYfeix0-79" value="[AUTHENTICATION OK]" style="edgeLabel;html=1;align=center;verticalAlign=middle;resizable=0;points=[];" parent="7IKxG8O1REAikYYfeix0-56" vertex="1" connectable="0">
          <mxGeometry x="-0.386" y="1" relative="1" as="geometry">
            <mxPoint x="16" y="-14" as="offset" />
          </mxGeometry>
        </mxCell>
        <mxCell id="7IKxG8O1REAikYYfeix0-89" style="edgeStyle=orthogonalEdgeStyle;rounded=0;orthogonalLoop=1;jettySize=auto;html=1;entryX=0;entryY=0.25;entryDx=0;entryDy=0;" parent="1" source="7IKxG8O1REAikYYfeix0-52" target="7IKxG8O1REAikYYfeix0-88" edge="1">
          <mxGeometry relative="1" as="geometry">
            <Array as="points">
              <mxPoint x="525" y="275" />
            </Array>
            <mxPoint x="2144" y="270" as="targetPoint" />
          </mxGeometry>
        </mxCell>
        <mxCell id="7IKxG8O1REAikYYfeix0-90" value="[AUTHENTICATION FAIL]" style="edgeLabel;html=1;align=center;verticalAlign=middle;resizable=0;points=[];" parent="7IKxG8O1REAikYYfeix0-89" vertex="1" connectable="0">
          <mxGeometry x="-0.9163" relative="1" as="geometry">
            <mxPoint y="3" as="offset" />
          </mxGeometry>
        </mxCell>
        <mxCell id="7IKxG8O1REAikYYfeix0-52" value="" style="rhombus;whiteSpace=wrap;html=1;" parent="1" vertex="1">
          <mxGeometry x="510" y="375" width="30" height="40" as="geometry" />
        </mxCell>
        <mxCell id="7IKxG8O1REAikYYfeix0-58" style="edgeStyle=orthogonalEdgeStyle;rounded=0;orthogonalLoop=1;jettySize=auto;html=1;" parent="1" source="7IKxG8O1REAikYYfeix0-55" target="7IKxG8O1REAikYYfeix0-57" edge="1">
          <mxGeometry relative="1" as="geometry" />
        </mxCell>
        <mxCell id="7IKxG8O1REAikYYfeix0-55" value="Validate Input" style="whiteSpace=wrap;html=1;rounded=1;" parent="1" vertex="1">
          <mxGeometry x="682" y="365" width="120" height="60" as="geometry" />
        </mxCell>
        <mxCell id="7IKxG8O1REAikYYfeix0-60" value="" style="edgeStyle=orthogonalEdgeStyle;rounded=0;orthogonalLoop=1;jettySize=auto;html=1;entryX=0;entryY=0.5;entryDx=0;entryDy=0;" parent="1" source="7IKxG8O1REAikYYfeix0-57" target="gEPOfhj-rf4EytHtDBw8-2" edge="1">
          <mxGeometry relative="1" as="geometry" />
        </mxCell>
        <mxCell id="7IKxG8O1REAikYYfeix0-92" style="edgeStyle=orthogonalEdgeStyle;rounded=0;orthogonalLoop=1;jettySize=auto;html=1;entryX=0;entryY=0.5;entryDx=0;entryDy=0;" parent="1" source="7IKxG8O1REAikYYfeix0-57" edge="1" target="7IKxG8O1REAikYYfeix0-88">
          <mxGeometry relative="1" as="geometry">
            <mxPoint x="1169" y="290" as="targetPoint" />
            <Array as="points">
              <mxPoint x="854" y="290" />
            </Array>
          </mxGeometry>
        </mxCell>
        <mxCell id="7IKxG8O1REAikYYfeix0-93" value="[INPUT ERROR]" style="edgeLabel;html=1;align=center;verticalAlign=middle;resizable=0;points=[];" parent="7IKxG8O1REAikYYfeix0-92" vertex="1" connectable="0">
          <mxGeometry x="0.1697" y="1" relative="1" as="geometry">
            <mxPoint x="-759" y="31" as="offset" />
          </mxGeometry>
        </mxCell>
        <mxCell id="7IKxG8O1REAikYYfeix0-57" value="" style="rhombus;whiteSpace=wrap;html=1;" parent="1" vertex="1">
          <mxGeometry x="840" y="375" width="30" height="40" as="geometry" />
        </mxCell>
        <mxCell id="7IKxG8O1REAikYYfeix0-62" style="edgeStyle=orthogonalEdgeStyle;rounded=0;orthogonalLoop=1;jettySize=auto;html=1;entryX=0;entryY=0.5;entryDx=0;entryDy=0;" parent="1" source="7IKxG8O1REAikYYfeix0-59" target="7IKxG8O1REAikYYfeix0-61" edge="1">
          <mxGeometry relative="1" as="geometry" />
        </mxCell>
        <mxCell id="7IKxG8O1REAikYYfeix0-59" value="Check Units" style="whiteSpace=wrap;html=1;rounded=1;" parent="1" vertex="1">
          <mxGeometry x="1281" y="365" width="120" height="60" as="geometry" />
        </mxCell>
        <mxCell id="7IKxG8O1REAikYYfeix0-64" value="" style="edgeStyle=orthogonalEdgeStyle;rounded=0;orthogonalLoop=1;jettySize=auto;html=1;" parent="1" source="7IKxG8O1REAikYYfeix0-61" target="7IKxG8O1REAikYYfeix0-66" edge="1">
          <mxGeometry relative="1" as="geometry">
            <mxPoint x="1394" y="395" as="targetPoint" />
          </mxGeometry>
        </mxCell>
        <mxCell id="7IKxG8O1REAikYYfeix0-85" value="[UNITS OK]" style="edgeLabel;html=1;align=center;verticalAlign=middle;resizable=0;points=[];" parent="7IKxG8O1REAikYYfeix0-64" vertex="1" connectable="0">
          <mxGeometry x="-0.1464" y="1" relative="1" as="geometry">
            <mxPoint y="-14" as="offset" />
          </mxGeometry>
        </mxCell>
        <mxCell id="7IKxG8O1REAikYYfeix0-95" value="" style="edgeStyle=orthogonalEdgeStyle;rounded=0;orthogonalLoop=1;jettySize=auto;html=1;" parent="1" source="7IKxG8O1REAikYYfeix0-61" target="7IKxG8O1REAikYYfeix0-94" edge="1">
          <mxGeometry relative="1" as="geometry" />
        </mxCell>
        <mxCell id="7IKxG8O1REAikYYfeix0-96" value="[NON STANDARD UNIT]" style="edgeLabel;html=1;align=center;verticalAlign=middle;resizable=0;points=[];" parent="7IKxG8O1REAikYYfeix0-95" vertex="1" connectable="0">
          <mxGeometry x="-0.1789" relative="1" as="geometry">
            <mxPoint y="6" as="offset" />
          </mxGeometry>
        </mxCell>
        <mxCell id="7IKxG8O1REAikYYfeix0-61" value="" style="rhombus;whiteSpace=wrap;html=1;" parent="1" vertex="1">
          <mxGeometry x="1433" y="375" width="30" height="40" as="geometry" />
        </mxCell>
        <mxCell id="7IKxG8O1REAikYYfeix0-69" style="edgeStyle=orthogonalEdgeStyle;rounded=0;orthogonalLoop=1;jettySize=auto;html=1;entryX=0;entryY=0.5;entryDx=0;entryDy=0;" parent="1" source="7IKxG8O1REAikYYfeix0-66" target="7IKxG8O1REAikYYfeix0-68" edge="1">
          <mxGeometry relative="1" as="geometry" />
        </mxCell>
        <mxCell id="7IKxG8O1REAikYYfeix0-66" value="Look for Fuel Emission factor in DB" style="rounded=1;whiteSpace=wrap;html=1;" parent="1" vertex="1">
          <mxGeometry x="1599" y="365" width="120" height="60" as="geometry" />
        </mxCell>
        <mxCell id="7IKxG8O1REAikYYfeix0-71" value="" style="edgeStyle=orthogonalEdgeStyle;rounded=0;orthogonalLoop=1;jettySize=auto;html=1;" parent="1" source="7IKxG8O1REAikYYfeix0-68" target="7IKxG8O1REAikYYfeix0-70" edge="1">
          <mxGeometry relative="1" as="geometry" />
        </mxCell>
        <mxCell id="7IKxG8O1REAikYYfeix0-86" value="[FACTOR FOUND]" style="edgeLabel;html=1;align=center;verticalAlign=middle;resizable=0;points=[];" parent="7IKxG8O1REAikYYfeix0-71" vertex="1" connectable="0">
          <mxGeometry x="-0.2767" relative="1" as="geometry">
            <mxPoint x="11" y="-15" as="offset" />
          </mxGeometry>
        </mxCell>
        <mxCell id="7IKxG8O1REAikYYfeix0-105" style="edgeStyle=orthogonalEdgeStyle;rounded=0;orthogonalLoop=1;jettySize=auto;html=1;entryX=0;entryY=0.75;entryDx=0;entryDy=0;" parent="1" source="7IKxG8O1REAikYYfeix0-68" edge="1" target="7IKxG8O1REAikYYfeix0-88">
          <mxGeometry relative="1" as="geometry">
            <mxPoint x="1774" y="290" as="targetPoint" />
            <Array as="points">
              <mxPoint x="1774" y="305" />
            </Array>
          </mxGeometry>
        </mxCell>
        <mxCell id="7IKxG8O1REAikYYfeix0-106" value="[FACTOR NOT FOUND]" style="edgeLabel;html=1;align=center;verticalAlign=middle;resizable=0;points=[];" parent="7IKxG8O1REAikYYfeix0-105" vertex="1" connectable="0">
          <mxGeometry x="0.1888" relative="1" as="geometry">
            <mxPoint x="-153" y="30" as="offset" />
          </mxGeometry>
        </mxCell>
        <mxCell id="7IKxG8O1REAikYYfeix0-68" value="" style="rhombus;whiteSpace=wrap;html=1;" parent="1" vertex="1">
          <mxGeometry x="1759" y="375" width="30" height="40" as="geometry" />
        </mxCell>
        <mxCell id="7IKxG8O1REAikYYfeix0-73" style="edgeStyle=orthogonalEdgeStyle;rounded=0;orthogonalLoop=1;jettySize=auto;html=1;entryX=0;entryY=0.5;entryDx=0;entryDy=0;" parent="1" source="7IKxG8O1REAikYYfeix0-70" target="7IKxG8O1REAikYYfeix0-72" edge="1">
          <mxGeometry relative="1" as="geometry" />
        </mxCell>
        <mxCell id="7IKxG8O1REAikYYfeix0-70" value="Calculate Emissions" style="whiteSpace=wrap;html=1;rounded=1;" parent="1" vertex="1">
          <mxGeometry x="1904" y="365" width="120" height="60" as="geometry" />
        </mxCell>
        <mxCell id="7IKxG8O1REAikYYfeix0-75" value="" style="edgeStyle=orthogonalEdgeStyle;rounded=0;orthogonalLoop=1;jettySize=auto;html=1;" parent="1" source="7IKxG8O1REAikYYfeix0-72" target="7IKxG8O1REAikYYfeix0-74" edge="1">
          <mxGeometry relative="1" as="geometry" />
        </mxCell>
        <mxCell id="7IKxG8O1REAikYYfeix0-87" value="[CALCULATION OK]" style="edgeLabel;html=1;align=center;verticalAlign=middle;resizable=0;points=[];" parent="7IKxG8O1REAikYYfeix0-75" vertex="1" connectable="0">
          <mxGeometry x="-0.297" y="1" relative="1" as="geometry">
            <mxPoint x="12" y="-14" as="offset" />
          </mxGeometry>
        </mxCell>
        <mxCell id="7IKxG8O1REAikYYfeix0-107" style="edgeStyle=orthogonalEdgeStyle;rounded=0;orthogonalLoop=1;jettySize=auto;html=1;entryX=0;entryY=0.25;entryDx=0;entryDy=0;" parent="1" source="7IKxG8O1REAikYYfeix0-72" edge="1" target="7IKxG8O1REAikYYfeix0-101">
          <mxGeometry relative="1" as="geometry">
            <mxPoint x="2089" y="540" as="targetPoint" />
            <Array as="points">
              <mxPoint x="2089" y="525" />
            </Array>
          </mxGeometry>
        </mxCell>
        <mxCell id="7IKxG8O1REAikYYfeix0-108" value="[CALCULATION FAIL]" style="edgeLabel;html=1;align=center;verticalAlign=middle;resizable=0;points=[];" parent="7IKxG8O1REAikYYfeix0-107" vertex="1" connectable="0">
          <mxGeometry x="-0.1471" relative="1" as="geometry">
            <mxPoint y="-55" as="offset" />
          </mxGeometry>
        </mxCell>
        <mxCell id="7IKxG8O1REAikYYfeix0-72" value="" style="rhombus;whiteSpace=wrap;html=1;" parent="1" vertex="1">
          <mxGeometry x="2074" y="375" width="30" height="40" as="geometry" />
        </mxCell>
        <mxCell id="7IKxG8O1REAikYYfeix0-77" style="edgeStyle=orthogonalEdgeStyle;rounded=0;orthogonalLoop=1;jettySize=auto;html=1;" parent="1" source="7IKxG8O1REAikYYfeix0-74" target="7IKxG8O1REAikYYfeix0-76" edge="1">
          <mxGeometry relative="1" as="geometry" />
        </mxCell>
        <mxCell id="7IKxG8O1REAikYYfeix0-74" value="Send Calculation Report" style="whiteSpace=wrap;html=1;rounded=1;" parent="1" vertex="1">
          <mxGeometry x="2214" y="365" width="120" height="60" as="geometry" />
        </mxCell>
        <mxCell id="7IKxG8O1REAikYYfeix0-76" value="" style="ellipse;shape=endState;fillColor=#000000;strokeColor=#ff0000" parent="1" vertex="1">
          <mxGeometry x="2424" y="380" width="30" height="30" as="geometry" />
        </mxCell>
        <mxCell id="7IKxG8O1REAikYYfeix0-84" value="[INPUT OK]" style="text;html=1;align=center;verticalAlign=middle;resizable=0;points=[];autosize=1;strokeColor=none;fillColor=none;" parent="1" vertex="1">
          <mxGeometry x="870" y="365" width="90" height="30" as="geometry" />
        </mxCell>
        <mxCell id="7IKxG8O1REAikYYfeix0-91" style="edgeStyle=orthogonalEdgeStyle;rounded=0;orthogonalLoop=1;jettySize=auto;html=1;" parent="1" source="7IKxG8O1REAikYYfeix0-88" target="7IKxG8O1REAikYYfeix0-76" edge="1">
          <mxGeometry relative="1" as="geometry" />
        </mxCell>
        <mxCell id="7IKxG8O1REAikYYfeix0-88" value="Send error message" style="rounded=1;whiteSpace=wrap;html=1;" parent="1" vertex="1">
          <mxGeometry x="2214" y="260" width="120" height="60" as="geometry" />
        </mxCell>
        <mxCell id="7IKxG8O1REAikYYfeix0-98" style="edgeStyle=orthogonalEdgeStyle;rounded=0;orthogonalLoop=1;jettySize=auto;html=1;entryX=0;entryY=0.5;entryDx=0;entryDy=0;" parent="1" source="7IKxG8O1REAikYYfeix0-94" target="7IKxG8O1REAikYYfeix0-97" edge="1">
          <mxGeometry relative="1" as="geometry" />
        </mxCell>
        <mxCell id="7IKxG8O1REAikYYfeix0-99" value="[CONVERSION OK]" style="edgeLabel;html=1;align=center;verticalAlign=middle;resizable=0;points=[];" parent="7IKxG8O1REAikYYfeix0-98" vertex="1" connectable="0">
          <mxGeometry x="-0.1035" relative="1" as="geometry">
            <mxPoint x="8" y="20" as="offset" />
          </mxGeometry>
        </mxCell>
        <mxCell id="7IKxG8O1REAikYYfeix0-94" value="Convert Units" style="whiteSpace=wrap;html=1;rounded=1;" parent="1" vertex="1">
          <mxGeometry x="1388" y="510" width="120" height="60" as="geometry" />
        </mxCell>
        <mxCell id="7IKxG8O1REAikYYfeix0-100" style="edgeStyle=orthogonalEdgeStyle;rounded=0;orthogonalLoop=1;jettySize=auto;html=1;entryX=0.627;entryY=1.024;entryDx=0;entryDy=0;entryPerimeter=0;" parent="1" source="7IKxG8O1REAikYYfeix0-97" target="7IKxG8O1REAikYYfeix0-66" edge="1">
          <mxGeometry relative="1" as="geometry" />
        </mxCell>
        <mxCell id="7IKxG8O1REAikYYfeix0-102" style="edgeStyle=orthogonalEdgeStyle;rounded=0;orthogonalLoop=1;jettySize=auto;html=1;entryX=0;entryY=0.5;entryDx=0;entryDy=0;" parent="1" source="7IKxG8O1REAikYYfeix0-97" target="7IKxG8O1REAikYYfeix0-101" edge="1">
          <mxGeometry relative="1" as="geometry" />
        </mxCell>
        <mxCell id="7IKxG8O1REAikYYfeix0-103" value="[CONVERSION FAIL]" style="edgeLabel;html=1;align=center;verticalAlign=middle;resizable=0;points=[];" parent="7IKxG8O1REAikYYfeix0-102" vertex="1" connectable="0">
          <mxGeometry x="-0.7471" y="-2" relative="1" as="geometry">
            <mxPoint x="4" y="18" as="offset" />
          </mxGeometry>
        </mxCell>
        <mxCell id="7IKxG8O1REAikYYfeix0-97" value="" style="rhombus;whiteSpace=wrap;html=1;" parent="1" vertex="1">
          <mxGeometry x="1659" y="520" width="30" height="40" as="geometry" />
        </mxCell>
        <mxCell id="7IKxG8O1REAikYYfeix0-104" style="edgeStyle=orthogonalEdgeStyle;rounded=0;orthogonalLoop=1;jettySize=auto;html=1;entryX=0.5;entryY=1;entryDx=0;entryDy=0;" parent="1" source="7IKxG8O1REAikYYfeix0-101" target="7IKxG8O1REAikYYfeix0-76" edge="1">
          <mxGeometry relative="1" as="geometry" />
        </mxCell>
        <mxCell id="7IKxG8O1REAikYYfeix0-101" value="Send error message" style="rounded=1;whiteSpace=wrap;html=1;" parent="1" vertex="1">
          <mxGeometry x="2214" y="510" width="120" height="60" as="geometry" />
        </mxCell>
        <mxCell id="gEPOfhj-rf4EytHtDBw8-1" value="This calculation is valid when user provides doesn&#39;t know about the fuel consumption but has insight in the route (load and distance) and transportation characteristics (vehicle and fuel used)" style="text;html=1;strokeColor=none;fillColor=none;align=center;verticalAlign=middle;whiteSpace=wrap;rounded=0;" vertex="1" parent="1">
          <mxGeometry x="61" y="220" width="249" height="90" as="geometry" />
        </mxCell>
        <mxCell id="gEPOfhj-rf4EytHtDBw8-4" style="edgeStyle=orthogonalEdgeStyle;rounded=0;orthogonalLoop=1;jettySize=auto;html=1;exitX=1;exitY=0.5;exitDx=0;exitDy=0;entryX=0;entryY=0.5;entryDx=0;entryDy=0;" edge="1" parent="1" source="gEPOfhj-rf4EytHtDBw8-2" target="gEPOfhj-rf4EytHtDBw8-3">
          <mxGeometry relative="1" as="geometry" />
        </mxCell>
        <mxCell id="gEPOfhj-rf4EytHtDBw8-2" value="Categorize transportation type" style="whiteSpace=wrap;html=1;rounded=1;" vertex="1" parent="1">
          <mxGeometry x="961" y="365" width="120" height="60" as="geometry" />
        </mxCell>
        <mxCell id="gEPOfhj-rf4EytHtDBw8-5" style="edgeStyle=orthogonalEdgeStyle;rounded=0;orthogonalLoop=1;jettySize=auto;html=1;exitX=1;exitY=0.5;exitDx=0;exitDy=0;" edge="1" parent="1" source="gEPOfhj-rf4EytHtDBw8-3" target="7IKxG8O1REAikYYfeix0-59">
          <mxGeometry relative="1" as="geometry" />
        </mxCell>
        <mxCell id="gEPOfhj-rf4EytHtDBw8-7" value="[ TRANSPORTATION &lt;br&gt;TYPE SUPPORTED ]" style="edgeLabel;html=1;align=center;verticalAlign=middle;resizable=0;points=[];" vertex="1" connectable="0" parent="gEPOfhj-rf4EytHtDBw8-5">
          <mxGeometry x="-0.3701" relative="1" as="geometry">
            <mxPoint x="20" y="-20" as="offset" />
          </mxGeometry>
        </mxCell>
        <mxCell id="gEPOfhj-rf4EytHtDBw8-6" style="edgeStyle=orthogonalEdgeStyle;rounded=0;orthogonalLoop=1;jettySize=auto;html=1;exitX=0.5;exitY=1;exitDx=0;exitDy=0;entryX=0;entryY=0.75;entryDx=0;entryDy=0;" edge="1" parent="1" source="gEPOfhj-rf4EytHtDBw8-3" target="7IKxG8O1REAikYYfeix0-101">
          <mxGeometry relative="1" as="geometry">
            <Array as="points">
              <mxPoint x="1139" y="590" />
              <mxPoint x="2124" y="590" />
              <mxPoint x="2124" y="555" />
            </Array>
          </mxGeometry>
        </mxCell>
        <mxCell id="gEPOfhj-rf4EytHtDBw8-3" value="" style="rhombus;whiteSpace=wrap;html=1;" vertex="1" parent="1">
          <mxGeometry x="1124" y="375" width="30" height="40" as="geometry" />
        </mxCell>
        <mxCell id="gEPOfhj-rf4EytHtDBw8-8" value="[ TRANSPORTATION TYPE&lt;br&gt;&amp;nbsp;NOT SUPPORTED ]" style="edgeLabel;html=1;align=center;verticalAlign=middle;resizable=0;points=[];" vertex="1" connectable="0" parent="1">
          <mxGeometry x="1214" y="385" as="geometry">
            <mxPoint x="-79" y="74" as="offset" />
          </mxGeometry>
        </mxCell>
      </root>
    </mxGraphModel>
  </diagram>
</mxfile>
